<svg width="512" height="512" viewBox="0 0 512 512" fill="none" xmlns="http://www.w3.org/2000/svg">
    <path d="M504.337 317.967c-34.195 137.158-173.114 220.631-310.289 186.428C56.93 470.199-26.543 331.272 7.668 194.121 41.848 56.947 180.767-26.534 317.902 7.661 455.068 41.858 538.533 180.8 504.337 317.968Zm-135.454-98.411c5.097-34.067-20.842-52.381-56.31-64.599l11.505-46.149-28.091-7-11.201 44.932c-7.385-1.84-14.97-3.576-22.506-5.296l11.281-45.229-28.075-7-11.513 46.132c-6.113-1.392-12.114-2.768-17.938-4.216l.032-.144-38.74-9.673-7.473 30.003s20.842 4.776 20.402 5.072c11.377 2.841 13.433 10.37 13.089 16.338l-13.105 52.574c.784.2 1.8.488 2.92.936-.936-.232-1.936-.488-2.968-.736l-18.37 73.648c-1.392 3.456-4.921 8.641-12.873 6.672.28.408-20.419-5.096-20.419-5.096l-13.945 32.155 36.556 9.113c6.801 1.704 13.465 3.489 20.026 5.169l-11.625 46.677 28.059 7 11.513-46.18c7.665 2.08 15.106 4 22.386 5.808l-11.473 45.965 28.091 7.001 11.625-46.589c47.901 9.065 83.921 5.408 99.083-37.916 12.217-34.884-.608-55.006-25.811-68.127 18.354-4.233 32.18-16.306 35.868-41.245ZM304.7 309.558c-8.681 34.883-67.415 16.025-86.457 11.297l15.426-61.839c19.042 4.753 80.104 14.162 71.031 50.542Zm8.689-90.506c-7.921 31.731-56.806 15.61-72.664 11.657l13.986-56.086c15.858 3.953 66.927 11.33 58.678 44.429Z" fill="#F90"/>
</svg>
