<svg width="512" height="512" viewBox="0 0 512 512" fill="none" xmlns="http://www.w3.org/2000/svg">
    <path d="M256 512c141.385 0 256-114.615 256-256S397.385 0 256 0 0 114.615 0 256s114.615 256 256 256Z" fill="#F26798"/>
    <path d="M255.995 93.422c-89.758 0-162.782 72.937-162.782 162.582 0 89.644 73.024 162.577 162.782 162.577 89.763 0 162.792-72.929 162.792-162.577 0-89.645-73.029-162.582-162.792-162.582Zm107.118 76.734c18.569 23.014 29.854 52.078 30.374 83.748-6.179-1.268-32.345-6.146-63.614-6.146-10.09 0-20.709.506-31.355 1.82a455.199 455.199 0 0 0-2.743-6.562c-2.761-6.494-5.736-12.937-8.817-19.285 48.126-19.828 71.341-47.346 76.155-53.575Zm-107.118-51.284c34.687 0 66.394 12.887 90.612 34.112-3.833 5.23-24.624 31.218-71.03 48.751-21.48-39.264-44.991-71.778-50.586-79.326a137.299 137.299 0 0 1 31.004-3.537Zm-59.073 13.325c4.741 6.531 28.288 39.392 50.321 78.341-59.129 15.543-111.636 16.556-124.308 16.556h-1.347c9.104-41.956 37.453-76.821 75.334-94.897Zm-78.455 124.021c0-1.132.018-2.263.055-3.391.821.01 2.035.01 3.609.01 17.068 0 76.31-1.41 137.36-19.527a460.83 460.83 0 0 1 10.514 21.954c-1.542.443-3.062.886-4.572 1.379-68.739 22.201-106.52 80.973-112.334 90.579-21.54-24.268-34.632-56.13-34.632-91.004Zm137.528 137.337c-31.542 0-60.652-10.683-83.88-28.595 3.929-7.703 32.446-59.046 107.775-85.263.045-.018.095-.036.15-.05 18.888 49.175 26.888 90.447 29.083 103.239-16.346 6.872-34.299 10.669-53.128 10.669Zm77.898-24.209c-1.843-10.583-9.254-49.262-26.358-96.439 9.592-1.493 18.925-2.081 27.677-2.081 28.745 0 51.229 6.293 56.455 7.89-6.211 37.461-27.659 69.88-57.774 90.63Z" fill="#F1F2F2"/>
</svg>
