<svg width="213" height="25" viewBox="0 0 213 25" fill="none" xmlns="http://www.w3.org/2000/svg">
<path d="M3.07109 4.38976C3.07109 3.66259 3.66058 3.0731 4.38775 3.0731H7.02108C7.74826 3.0731 8.33775 3.66259 8.33775 4.38976V8.33976H4.38775C3.66058 8.33976 3.07109 7.75027 3.07109 7.02309V4.38976Z" fill="#0A9396"/>
<path fill-rule="evenodd" clip-rule="evenodd" d="M7.89999 1.75555H3.51111C2.54154 1.75555 1.75555 2.54154 1.75555 3.51111V7.9C1.75555 8.86956 2.54154 9.65555 3.51111 9.65555H9.65555V3.51111C9.65555 2.54154 8.86956 1.75555 7.89999 1.75555ZM3.51111 0C1.57198 0 0 1.57198 0 3.51111V7.9C0 9.83913 1.57198 11.4111 3.51111 11.4111H11.4111V3.51111C11.4111 1.57198 9.83913 0 7.89999 0H3.51111Z" fill="#0A9396"/>
<path d="M3.07109 19.7486C3.07109 20.4758 3.66058 21.0653 4.38775 21.0653H7.02108C7.74826 21.0653 8.33775 20.4758 8.33775 19.7486V15.7986H4.38775C3.66058 15.7986 3.07109 16.3881 3.07109 17.1153V19.7486Z" fill="#0A9396"/>
<path d="M7.89999 22.3833H3.51111C2.54154 22.3833 1.75555 21.5973 1.75555 20.6277V16.2388C1.75555 15.2693 2.54154 14.4833 3.51111 14.4833H9.21666C9.45905 14.4833 9.65555 14.6798 9.65555 14.9222V15.3611C9.65555 15.6035 9.85205 15.8 10.0944 15.8H10.9722C11.2146 15.8 11.4111 15.6035 11.4111 15.3611V13.1666C11.4111 12.9242 11.2146 12.7277 10.9722 12.7277H3.51111C1.57198 12.7277 0 14.2997 0 16.2388V20.6277C0 22.5669 1.57198 24.1388 3.51111 24.1388H7.89999C9.51856 24.1388 10.8813 23.0436 11.2877 21.5539C11.3571 21.2992 11.1509 21.0666 10.8869 21.0666H9.94047C9.74022 21.0666 9.57047 21.2052 9.48389 21.3858C9.20097 21.9759 8.59806 22.3833 7.89999 22.3833Z" fill="#0A9396"/>
<path d="M21.0678 4.38876C21.0678 3.66158 20.4783 3.07209 19.7511 3.07209H17.1178C16.3906 3.07209 15.8011 3.66158 15.8011 4.38876V8.33876H19.7511C20.4783 8.33876 21.0678 7.74926 21.0678 7.02209V4.38876Z" fill="#0A9396"/>
<path fill-rule="evenodd" clip-rule="evenodd" d="M16.2389 1.75555H20.6278C21.5973 1.75555 22.3833 2.54154 22.3833 3.51111V7.9C22.3833 8.86956 21.5973 9.65555 20.6278 9.65555H14.4833V3.51111C14.4833 2.54154 15.2693 1.75555 16.2389 1.75555ZM20.6278 0C22.5669 0 24.1389 1.57198 24.1389 3.51111V7.9C24.1389 9.83913 22.5669 11.4111 20.6278 11.4111H12.7278V3.51111C12.7278 1.57198 14.2998 0 16.2389 0H20.6278Z" fill="#0A9396"/>
<path d="M21.0658 19.7491C21.0658 20.4763 20.4763 21.0658 19.7491 21.0658H17.1158C16.3886 21.0658 15.7991 20.4763 15.7991 19.7491V15.7991H19.7491C20.4763 15.7991 21.0658 16.3886 21.0658 17.1158V19.7491Z" fill="#0A9396"/>
<path d="M14.4833 14.9217C14.4833 14.6793 14.6798 14.4828 14.9222 14.4828H20.6278C21.5973 14.4828 22.3833 15.2688 22.3833 16.2384V23.6995C22.3833 23.9419 22.5798 24.1384 22.8222 24.1384H23.7C23.9424 24.1384 24.1389 23.9419 24.1389 23.6995V16.2384C24.1389 14.2992 22.5669 12.7273 20.6278 12.7273H13.1666C12.9243 12.7273 12.7278 12.9238 12.7278 13.1662V23.6995C12.7278 23.9419 12.9243 24.1384 13.1666 24.1384H14.0444C14.2868 24.1384 14.4833 23.9419 14.4833 23.6995V14.9217Z" fill="#0A9396"/>
<path d="M34.1354 12.5481C34.1354 13.2607 34.2269 13.9014 34.41 14.4702C34.593 15.0324 34.8545 15.5097 35.1945 15.9019C35.541 16.2942 35.9626 16.5949 36.4595 16.8041C36.9629 17.0068 37.5349 17.1081 38.1756 17.1081C38.8098 17.1081 39.3753 17.0068 39.8721 16.8041C40.369 16.5949 40.7874 16.2942 41.1274 15.9019C41.4739 15.5097 41.7386 15.0324 41.9217 14.4702C42.1047 13.9014 42.1963 13.2607 42.1963 12.5481C42.1963 11.8421 42.1047 11.2079 41.9217 10.6457C41.7386 10.0769 41.4739 9.59641 41.1274 9.20415C40.7874 8.8119 40.369 8.51117 39.8721 8.30196C39.3753 8.09276 38.8098 7.98816 38.1756 7.98816C37.5349 7.98816 36.9629 8.09276 36.4595 8.30196C35.9626 8.51117 35.541 8.8119 35.1945 9.20415C34.8545 9.59641 34.593 10.0769 34.41 10.6457C34.2269 11.2079 34.1354 11.8421 34.1354 12.5481ZM46.3934 22.3742H43.6672C43.275 22.3742 42.9219 22.3219 42.6081 22.2173C42.3009 22.1192 42.0132 21.9329 41.7452 21.6583L39.9702 19.6676C39.4145 19.7918 38.8163 19.8539 38.1756 19.8539C37.0642 19.8539 36.0509 19.6676 35.1356 19.295C34.2204 18.9223 33.4359 18.4091 32.7821 17.7554C32.1349 17.0951 31.6315 16.3203 31.2719 15.4312C30.9189 14.5421 30.7424 13.5811 30.7424 12.5481C30.7424 11.5152 30.9189 10.5542 31.2719 9.66506C31.6315 8.77594 32.1349 8.0045 32.7821 7.35074C33.4359 6.69698 34.2204 6.18378 35.1356 5.81113C36.0509 5.43849 37.0642 5.25217 38.1756 5.25217C39.287 5.25217 40.2971 5.44176 41.2058 5.82094C42.1211 6.19358 42.9023 6.70679 43.5495 7.36055C44.1968 8.01431 44.6969 8.78575 45.0499 9.67486C45.4095 10.564 45.5893 11.5217 45.5893 12.5481C45.5893 13.1627 45.5239 13.7543 45.3932 14.3231C45.2689 14.8853 45.0859 15.4149 44.844 15.9117C44.6086 16.4086 44.3144 16.8695 43.9614 17.2945C43.6149 17.7194 43.2194 18.0953 42.7748 18.4222L46.3934 22.3742Z" fill="black"/>
<path d="M52.1974 12.1265C52.6485 12.1265 53.031 12.0709 53.3448 11.9598C53.6651 11.8421 53.9266 11.6819 54.1293 11.4792C54.332 11.2766 54.4791 11.0412 54.5706 10.7732C54.6621 10.4986 54.7079 10.2044 54.7079 9.8906C54.7079 9.26299 54.5019 8.77267 54.0901 8.41964C53.6847 8.06661 53.0539 7.89009 52.1974 7.89009H50.8638V12.1265H52.1974ZM59.2384 19.697H56.2377C55.682 19.697 55.2832 19.4878 55.0413 19.0694L52.6681 14.9213C52.557 14.7448 52.4328 14.6173 52.2955 14.5388C52.1582 14.4539 51.9621 14.4114 51.7071 14.4114H50.8638V19.697H47.5492V5.40907H52.1974C53.2304 5.40907 54.1097 5.51694 54.8354 5.73268C55.5676 5.94189 56.1625 6.23608 56.6201 6.61526C57.0843 6.99444 57.421 7.44227 57.6302 7.95874C57.8394 8.47521 57.944 9.03745 57.944 9.64544C57.944 10.1096 57.8819 10.5476 57.7577 10.9595C57.6335 11.3714 57.4504 11.7538 57.2085 12.1069C56.9666 12.4533 56.6659 12.7639 56.3063 13.0385C55.9533 13.313 55.5447 13.5386 55.0805 13.7151C55.2963 13.8262 55.4989 13.9668 55.6885 14.1368C55.8781 14.3002 56.0481 14.4964 56.1984 14.7252L59.2384 19.697Z" fill="black"/>
<path d="M74.6085 16C74.6869 16 74.7654 16.0163 74.8438 16.049C74.9223 16.0752 74.9975 16.1242 75.0694 16.1961L76.3834 17.5788C75.8081 18.3307 75.0857 18.8994 74.2162 19.2852C73.3532 19.6643 72.3301 19.8539 71.1468 19.8539C70.0616 19.8539 69.0875 19.6709 68.2245 19.3048C67.3681 18.9321 66.6391 18.4222 66.0377 17.775C65.4427 17.1212 64.9851 16.3498 64.6648 15.4607C64.3444 14.565 64.1842 13.5942 64.1842 12.5481C64.1842 11.4825 64.3575 10.5051 64.704 9.61602C65.0505 8.72037 65.5375 7.94893 66.1651 7.30171C66.7928 6.65449 67.5446 6.15109 68.4206 5.79152C69.2967 5.43195 70.261 5.25217 71.3135 5.25217C71.8496 5.25217 72.353 5.3012 72.8237 5.39926C73.3009 5.49079 73.7455 5.62154 74.1574 5.79152C74.5692 5.95496 74.9484 6.15436 75.2949 6.38971C75.6414 6.62507 75.9487 6.88003 76.2167 7.15461L75.0988 8.655C75.0269 8.74652 74.9419 8.83151 74.8438 8.90996C74.7458 8.98188 74.6085 9.01783 74.4319 9.01783C74.3143 9.01783 74.2031 8.99168 74.0985 8.93938C73.9939 8.88708 73.8828 8.82497 73.7651 8.75306C73.6474 8.67461 73.5167 8.59289 73.3729 8.5079C73.2356 8.41637 73.0689 8.33465 72.8727 8.26274C72.6831 8.18429 72.4576 8.11891 72.1961 8.06661C71.9411 8.01431 71.6404 7.98816 71.2939 7.98816C70.7447 7.98816 70.2413 8.08949 69.7837 8.29216C69.3326 8.49482 68.9404 8.79228 68.6069 9.18454C68.2801 9.57026 68.0251 10.0475 67.842 10.6163C67.6655 11.1785 67.5773 11.8225 67.5773 12.5481C67.5773 13.2804 67.6753 13.9308 67.8715 14.4996C68.0741 15.0684 68.3454 15.5489 68.6854 15.9412C69.0319 16.3269 69.4339 16.6211 69.8916 16.8237C70.3492 17.0264 70.8395 17.1277 71.3625 17.1277C71.6633 17.1277 71.9379 17.1147 72.1863 17.0885C72.4347 17.0558 72.6668 17.0068 72.8825 16.9414C73.0983 16.8695 73.3009 16.778 73.4905 16.6668C73.6801 16.5492 73.873 16.4021 74.0691 16.2256C74.1476 16.1602 74.2325 16.1079 74.3241 16.0686C74.4156 16.0229 74.5104 16 74.6085 16Z" fill="black"/>
<path d="M91.5279 12.5481C91.5279 13.5811 91.3481 14.5421 90.9886 15.4312C90.6355 16.3203 90.1354 17.0951 89.4882 17.7554C88.8409 18.4091 88.0597 18.9223 87.1444 19.295C86.2357 19.6676 85.2256 19.8539 84.1143 19.8539C83.0029 19.8539 81.9895 19.6676 81.0743 19.295C80.159 18.9223 79.3745 18.4091 78.7207 17.7554C78.0735 17.0951 77.5701 16.3203 77.2105 15.4312C76.8575 14.5421 76.681 13.5811 76.681 12.5481C76.681 11.5152 76.8575 10.5542 77.2105 9.66506C77.5701 8.77594 78.0735 8.0045 78.7207 7.35074C79.3745 6.69698 80.159 6.18378 81.0743 5.81113C81.9895 5.43849 83.0029 5.25217 84.1143 5.25217C85.2256 5.25217 86.2357 5.44176 87.1444 5.82094C88.0597 6.19358 88.8409 6.70679 89.4882 7.36055C90.1354 8.01431 90.6355 8.78575 90.9886 9.67486C91.3481 10.564 91.5279 11.5217 91.5279 12.5481ZM88.1349 12.5481C88.1349 11.8421 88.0434 11.2079 87.8603 10.6457C87.6772 10.0769 87.4125 9.59641 87.066 9.20415C86.726 8.8119 86.3076 8.51117 85.8108 8.30196C85.3139 8.09276 84.7484 7.98816 84.1143 7.98816C83.4736 7.98816 82.9015 8.09276 82.3981 8.30196C81.9013 8.51117 81.4796 8.8119 81.1331 9.20415C80.7931 9.59641 80.5316 10.0769 80.3486 10.6457C80.1655 11.2079 80.074 11.8421 80.074 12.5481C80.074 13.2607 80.1655 13.9014 80.3486 14.4702C80.5316 15.0324 80.7931 15.5097 81.1331 15.9019C81.4796 16.2942 81.9013 16.5949 82.3981 16.8041C82.9015 17.0068 83.4736 17.1081 84.1143 17.1081C84.7484 17.1081 85.3139 17.0068 85.8108 16.8041C86.3076 16.5949 86.726 16.2942 87.066 15.9019C87.4125 15.5097 87.6772 15.0324 87.8603 14.4702C88.0434 13.9014 88.1349 13.2607 88.1349 12.5481Z" fill="black"/>
<path d="M106.443 12.5481C106.443 13.5811 106.263 14.5356 105.903 15.4116C105.55 16.2811 105.05 17.0362 104.403 17.6769C103.756 18.311 102.974 18.8079 102.059 19.1675C101.15 19.5205 100.14 19.697 99.0289 19.697H93.4785V5.40907H99.0289C100.14 5.40907 101.15 5.58885 102.059 5.94842C102.974 6.30799 103.756 6.80485 104.403 7.439C105.05 8.07315 105.55 8.82824 105.903 9.70428C106.263 10.5738 106.443 11.5217 106.443 12.5481ZM103.05 12.5481C103.05 11.8421 102.958 11.2047 102.775 10.6359C102.592 10.0671 102.327 9.58661 101.981 9.19435C101.641 8.79555 101.222 8.49155 100.725 8.28235C100.229 8.06661 99.663 7.95874 99.0289 7.95874H96.8127V17.1474H99.0289C99.663 17.1474 100.229 17.0428 100.725 16.8335C101.222 16.6178 101.641 16.3138 101.981 15.9216C102.327 15.5228 102.592 15.039 102.775 14.4702C102.958 13.9014 103.05 13.2607 103.05 12.5481Z" fill="black"/>
<path d="M111.733 7.95874V11.2929H116.224V13.7445H111.733V17.1474H117.597V19.697H108.399V5.40907H117.597V7.95874H111.733Z" fill="black"/>
<path d="M133.811 16C133.889 16 133.968 16.0163 134.046 16.049C134.125 16.0752 134.2 16.1242 134.272 16.1961L135.586 17.5788C135.011 18.3307 134.288 18.8994 133.419 19.2852C132.556 19.6643 131.533 19.8539 130.349 19.8539C129.264 19.8539 128.29 19.6709 127.427 19.3048C126.57 18.9321 125.842 18.4222 125.24 17.775C124.645 17.1212 124.188 16.3498 123.867 15.4607C123.547 14.565 123.387 13.5942 123.387 12.5481C123.387 11.4825 123.56 10.5051 123.906 9.61602C124.253 8.72037 124.74 7.94893 125.368 7.30171C125.995 6.65449 126.747 6.15109 127.623 5.79152C128.499 5.43195 129.463 5.25217 130.516 5.25217C131.052 5.25217 131.555 5.3012 132.026 5.39926C132.503 5.49079 132.948 5.62154 133.36 5.79152C133.772 5.95496 134.151 6.15436 134.497 6.38971C134.844 6.62507 135.151 6.88003 135.419 7.15461L134.301 8.655C134.229 8.74652 134.144 8.83151 134.046 8.90996C133.948 8.98188 133.811 9.01783 133.634 9.01783C133.517 9.01783 133.406 8.99168 133.301 8.93938C133.196 8.88708 133.085 8.82497 132.968 8.75306C132.85 8.67461 132.719 8.59289 132.575 8.5079C132.438 8.41637 132.271 8.33465 132.075 8.26274C131.886 8.18429 131.66 8.11891 131.399 8.06661C131.144 8.01431 130.843 7.98816 130.496 7.98816C129.947 7.98816 129.444 8.08949 128.986 8.29216C128.535 8.49482 128.143 8.79228 127.809 9.18454C127.482 9.57026 127.228 10.0475 127.044 10.6163C126.868 11.1785 126.78 11.8225 126.78 12.5481C126.78 13.2804 126.878 13.9308 127.074 14.4996C127.277 15.0684 127.548 15.5489 127.888 15.9412C128.234 16.3269 128.636 16.6211 129.094 16.8237C129.552 17.0264 130.042 17.1277 130.565 17.1277C130.866 17.1277 131.14 17.1147 131.389 17.0885C131.637 17.0558 131.869 17.0068 132.085 16.9414C132.301 16.8695 132.503 16.778 132.693 16.6668C132.883 16.5492 133.075 16.4021 133.272 16.2256C133.35 16.1602 133.435 16.1079 133.527 16.0686C133.618 16.0229 133.713 16 133.811 16Z" fill="black"/>
<path d="M141.681 12.1265C142.132 12.1265 142.515 12.0709 142.828 11.9598C143.149 11.8421 143.41 11.6819 143.613 11.4792C143.816 11.2766 143.963 11.0412 144.054 10.7732C144.146 10.4986 144.191 10.2044 144.191 9.8906C144.191 9.26299 143.986 8.77267 143.574 8.41964C143.168 8.06661 142.537 7.89009 141.681 7.89009H140.347V12.1265H141.681ZM148.722 19.697H145.721C145.166 19.697 144.767 19.4878 144.525 19.0694L142.152 14.9213C142.041 14.7448 141.916 14.6173 141.779 14.5388C141.642 14.4539 141.446 14.4114 141.191 14.4114H140.347V19.697H137.033V5.40907H141.681C142.714 5.40907 143.593 5.51694 144.319 5.73268C145.051 5.94189 145.646 6.23608 146.104 6.61526C146.568 6.99444 146.905 7.44227 147.114 7.95874C147.323 8.47521 147.428 9.03745 147.428 9.64544C147.428 10.1096 147.365 10.5476 147.241 10.9595C147.117 11.3714 146.934 11.7538 146.692 12.1069C146.45 12.4533 146.149 12.7639 145.79 13.0385C145.437 13.313 145.028 13.5386 144.564 13.7151C144.78 13.8262 144.982 13.9668 145.172 14.1368C145.362 14.3002 145.532 14.4964 145.682 14.7252L148.722 19.697Z" fill="black"/>
<path d="M153.257 7.95874V11.2929H157.748V13.7445H153.257V17.1474H159.121V19.697H149.923V5.40907H159.121V7.95874H153.257Z" fill="black"/>
<path d="M168.717 14.2348L167.393 10.3221C167.295 10.0737 167.19 9.78273 167.079 9.44931C166.968 9.10936 166.857 8.74325 166.746 8.351C166.648 8.74979 166.543 9.11917 166.432 9.45912C166.321 9.79908 166.216 10.0933 166.118 10.3417L164.804 14.2348H168.717ZM173.983 19.697H171.413C171.126 19.697 170.894 19.6316 170.717 19.5009C170.541 19.3636 170.407 19.1904 170.315 18.9812L169.472 16.4903H164.039L163.196 18.9812C163.124 19.1642 162.993 19.3309 162.803 19.4813C162.62 19.6251 162.392 19.697 162.117 19.697H159.528L165.059 5.40907H168.452L173.983 19.697Z" fill="black"/>
<path d="M183.978 8.03719H179.958V19.697H176.643V8.03719H172.623V5.40907H183.978V8.03719Z" fill="black"/>
<path d="M199.36 12.5481C199.36 13.5811 199.18 14.5421 198.821 15.4312C198.468 16.3203 197.968 17.0951 197.32 17.7554C196.673 18.4091 195.892 18.9223 194.977 19.295C194.068 19.6676 193.058 19.8539 191.947 19.8539C190.835 19.8539 189.822 19.6676 188.907 19.295C187.991 18.9223 187.207 18.4091 186.553 17.7554C185.906 17.0951 185.402 16.3203 185.043 15.4312C184.69 14.5421 184.513 13.5811 184.513 12.5481C184.513 11.5152 184.69 10.5542 185.043 9.66506C185.402 8.77594 185.906 8.0045 186.553 7.35074C187.207 6.69698 187.991 6.18378 188.907 5.81113C189.822 5.43849 190.835 5.25217 191.947 5.25217C193.058 5.25217 194.068 5.44176 194.977 5.82094C195.892 6.19358 196.673 6.70679 197.32 7.36055C197.968 8.01431 198.468 8.78575 198.821 9.67486C199.18 10.564 199.36 11.5217 199.36 12.5481ZM195.967 12.5481C195.967 11.8421 195.876 11.2079 195.693 10.6457C195.51 10.0769 195.245 9.59641 194.898 9.20415C194.558 8.8119 194.14 8.51117 193.643 8.30196C193.146 8.09276 192.581 7.98816 191.947 7.98816C191.306 7.98816 190.734 8.09276 190.23 8.30196C189.734 8.51117 189.312 8.8119 188.965 9.20415C188.625 9.59641 188.364 10.0769 188.181 10.6457C187.998 11.2079 187.906 11.8421 187.906 12.5481C187.906 13.2607 187.998 13.9014 188.181 14.4702C188.364 15.0324 188.625 15.5097 188.965 15.9019C189.312 16.2942 189.734 16.5949 190.23 16.8041C190.734 17.0068 191.306 17.1081 191.947 17.1081C192.581 17.1081 193.146 17.0068 193.643 16.8041C194.14 16.5949 194.558 16.2942 194.898 15.9019C195.245 15.5097 195.51 15.0324 195.693 14.4702C195.876 13.9014 195.967 13.2607 195.967 12.5481Z" fill="black"/>
<path d="M205.959 12.1265C206.41 12.1265 206.793 12.0709 207.106 11.9598C207.427 11.8421 207.688 11.6819 207.891 11.4792C208.094 11.2766 208.241 11.0412 208.332 10.7732C208.424 10.4986 208.469 10.2044 208.469 9.8906C208.469 9.26299 208.264 8.77267 207.852 8.41964C207.446 8.06661 206.815 7.89009 205.959 7.89009H204.625V12.1265H205.959ZM213 19.697H209.999C209.444 19.697 209.045 19.4878 208.803 19.0694L206.43 14.9213C206.319 14.7448 206.194 14.6173 206.057 14.5388C205.92 14.4539 205.724 14.4114 205.469 14.4114H204.625V19.697H201.311V5.40907H205.959C206.992 5.40907 207.871 5.51694 208.597 5.73268C209.329 5.94189 209.924 6.23608 210.382 6.61526C210.846 6.99444 211.183 7.44227 211.392 7.95874C211.601 8.47521 211.706 9.03745 211.706 9.64544C211.706 10.1096 211.643 10.5476 211.519 10.9595C211.395 11.3714 211.212 11.7538 210.97 12.1069C210.728 12.4533 210.427 12.7639 210.068 13.0385C209.715 13.313 209.306 13.5386 208.842 13.7151C209.058 13.8262 209.26 13.9668 209.45 14.1368C209.64 14.3002 209.81 14.4964 209.96 14.7252L213 19.697Z" fill="black"/>
</svg>
