<svg width="19" height="19" viewBox="0 0 19 19" fill="none" xmlns="http://www.w3.org/2000/svg">
    <path fill-rule="evenodd" clip-rule="evenodd" d="M9.498 0a9.498 9.498 0 0 0-7.202 15.688l-1.192 1.19a.718.718 0 1 0 1.014 1.014l1.19-1.19A9.498 9.498 0 0 0 16.703 3.307l1.19-1.189a.718.718 0 0 0-1.015-1.015l-1.191 1.189A9.461 9.461 0 0 0 9.498.001V0Zm5.223 3.261A8.134 8.134 0 0 0 3.262 14.722L14.721 3.263ZM4.275 15.734A8.134 8.134 0 0 0 15.736 4.273L4.275 15.734l.001-.001Z" fill="#E0E0E0"/>
</svg>
