<svg width="512" height="512" viewBox="0 0 512 512" fill="none" xmlns="http://www.w3.org/2000/svg">
    <path
        d="M511.344 274.266c.426-6.035.656-12.123.656-18.266C512 114.615 397.385 0 256 0S0 114.615 0 256c0 117.769 79.53 216.949 187.809 246.801l323.535-228.535Z"
        fill="#C30B15"/>
    <path
        d="M511.344 274.265 314.991 77.912 119.096 434.086 187.81 502.8c21.712 5.986 44.575 9.199 68.19 9.199 135.243 0 245.976-104.875 255.344-237.734Z"
        fill="#C30B15"/>
    <path d="m278.328 333.912-22.617-256H119.096v233.739l159.232 22.261Z" fill="#fff"/>
    <path d="M392.904 311.651V155.825l-55.652-22.261-22.261-55.652h-59.28l.356 256 136.837-22.261Z" fill="#E8E6E6"/>
    <path d="M314.991 155.825V77.912l77.913 77.913h-77.913Z" fill="#fff"/>
    <path d="M392.905 311.652H119.096v122.435h273.809V311.652Z" fill="#FC0F1A"/>
    <path
        d="M204.871 346.387c13.547 0 21.341 6.659 21.341 18.465 0 12.412-7.795 19.601-21.341 19.601h-9.611v14.909h-13.471v-52.975h23.082Zm-9.611 27.471h8.93c5.904 0 9.308-2.952 9.308-8.552 0-5.525-3.406-8.324-9.308-8.324h-8.93v16.876Zm62.668-27.471c16.649 0 28.152 10.746 28.152 26.487 0 15.666-11.655 26.488-28.683 26.488h-22.25v-52.975h22.781Zm-9.309 42.228h9.611c8.249 0 14.151-6.357 14.151-15.665 0-9.384-6.205-15.817-14.757-15.817h-9.006v31.482h.001Zm59.944-31.632v12.26h23.763v10.596h-23.763v19.525h-13.471v-52.975h39.277v10.595h-25.806v-.001Z"
        fill="#fff"/>
</svg>
