<svg width="512" height="512"  data-colorable="true" viewBox="0 0 512 512" xmlns="http://www.w3.org/2000/svg">
  <path fill-rule="evenodd" clip-rule="evenodd" d="M113.962 43h282.515L469 115.523V469H114v-35.5h319.5V167.25h-88.75V78.5H149.462v124.25h-35.5V43ZM380.25 78.5v53.25h53.25v-1.523L381.773 78.5h-1.523ZM78.5 238.25h44.375c21.662 0 37.576 6.979 47.35 19.685 9.089 11.816 10.337 25.444 10.337 33.565 0 8.121-1.248 21.749-10.337 33.565-9.774 12.706-25.688 19.685-47.35 19.685h-4.437v35.5H78.5v-142Zm35.5 71h8.875c13.838 0 17.893-4.115 19.212-5.83 2.005-2.607 2.975-6.728 2.975-11.92s-.97-9.313-2.975-11.92c-1.319-1.715-5.374-5.83-19.212-5.83H114v35.5Zm79.875-71h48.018c12.401 0 28.182 2.711 40.57 15.269 12.265 12.434 17.912 31.191 17.912 55.731 0 24.54-5.647 43.297-17.912 55.731-12.388 12.558-28.169 15.269-40.57 15.269h-48.018v-142Zm35.5 35.5v71h12.518c7.778 0 12.364-1.726 15.297-4.7 3.055-3.097 7.685-10.965 7.685-30.8s-4.63-27.703-7.685-30.8c-2.933-2.974-7.519-4.7-15.297-4.7h-12.518Zm88.75-35.5h88.75v35.5h-53.25v26.625h35.5v35.5h-35.5v44.375h-35.5v-142Z"/>
</svg>
