<svg width="512" height="512" data-colorable="true" viewBox="0 0 512 512" xmlns="http://www.w3.org/2000/svg">
  <path fill-rule="evenodd" clip-rule="evenodd" d="M154.489 175.181c29.653 0 53.692-24.039 53.692-53.693 0-29.654-24.039-53.693-53.692-53.693-29.654 0-53.693 24.04-53.693 53.693 0 29.654 24.039 53.693 53.693 53.693Zm0 35.795c49.422 0 89.488-40.065 89.488-89.488S203.911 32 154.489 32C105.066 32 65 72.065 65 121.488s40.066 89.488 89.489 89.488Zm202.242 232.669c29.654 0 53.693-24.039 53.693-53.693 0-29.654-24.039-53.693-53.693-53.693-29.653 0-53.692 24.039-53.692 53.693 0 29.654 24.039 53.693 53.692 53.693Zm0 35.795c49.423 0 89.488-40.065 89.488-89.488s-40.065-89.488-89.488-89.488c-49.422 0-89.488 40.065-89.488 89.488s40.066 89.488 89.488 89.488Zm-285.337-3.628c-7.572-6.353-8.56-17.642-2.206-25.214l345.13-411.311c6.354-7.572 17.643-8.56 25.215-2.206 7.572 6.353 8.56 17.642 2.206 25.214L96.609 473.606c-6.354 7.572-17.643 8.56-25.215 2.206Z"/>
</svg>
