<svg width="512" height="512" viewBox="0 0 512 512" fill="none" xmlns="http://www.w3.org/2000/svg">
    <path d="M306.95 273.474 271.543 14.223h-2.647A233.868 233.868 0 0 0 35.425 247.259v2.647l271.525 23.568Z"
          fill="#ED6C47"/>
    <path d="M274.177 14.223h-2.647v235.683l118.041 47.136 118.059-47.136v-2.647A233.87 233.87 0 0 0 274.177 14.223Z"
          fill="#FF8F6B"/>
    <path
        d="M507.644 249.906v2.593a233.958 233.958 0 0 1-233.507 233.09h-5.203a233.996 233.996 0 0 1-233.508-233.09v-2.593h472.218Z"
        fill="#D35230"/>
    <path opacity=".1"
          d="M283.336 130.052v251.474a21.754 21.754 0 0 1-13.453 19.942 21.03 21.03 0 0 1-8.158 1.65H91.145c-3.3-3.771-6.49-7.777-9.445-11.784a230.878 230.878 0 0 1-46.285-138.817v-5.185A230.338 230.338 0 0 1 73.433 120.28c2.592-4.006 5.311-8.013 8.267-11.784h180.025a21.754 21.754 0 0 1 21.611 21.556Z"
          fill="#000"/>
    <path opacity=".2"
          d="M271.533 141.853v251.474a20.846 20.846 0 0 1-1.65 8.122 21.751 21.751 0 0 1-19.942 13.434H101.896a210.742 210.742 0 0 1-10.75-11.784 182.93 182.93 0 0 1-9.446-11.784 230.88 230.88 0 0 1-46.285-138.818v-5.185a230.337 230.337 0 0 1 38.018-127.033h176.49a21.755 21.755 0 0 1 21.61 21.574Z"
          fill="#000"/>
    <path opacity=".2"
          d="M271.533 141.853v227.906a21.755 21.755 0 0 1-21.61 21.556H81.7a230.88 230.88 0 0 1-46.285-138.818v-5.185a230.337 230.337 0 0 1 38.018-127.033h176.49a21.755 21.755 0 0 1 21.61 21.574Z"
          fill="#000"/>
    <path opacity=".2"
          d="M259.731 141.853v227.906a21.756 21.756 0 0 1-21.61 21.556H81.7a230.88 230.88 0 0 1-46.285-138.818v-5.185a230.337 230.337 0 0 1 38.018-127.033H238.12a21.756 21.756 0 0 1 21.61 21.574Z"
          fill="#000"/>
    <path
        d="M21.647 120.279h216.429a21.633 21.633 0 0 1 21.647 21.593v216.066a21.63 21.63 0 0 1-21.647 21.593H21.646A21.62 21.62 0 0 1 6.35 373.22 21.608 21.608 0 0 1 0 357.938V141.872a21.609 21.609 0 0 1 21.647-21.593Z"
        fill="url(#a)"/>
    <path
        d="M132.219 177.902a59.593 59.593 0 0 1 39.413 11.53 41.155 41.155 0 0 1 13.706 33.377 46.322 46.322 0 0 1-6.762 24.946 45.142 45.142 0 0 1-19.199 16.951 65.392 65.392 0 0 1-28.844 6.055h-27.43v50.763H75.075V177.902h57.144Zm-29.134 70.922h24.13a31.451 31.451 0 0 0 21.338-6.363 23.575 23.575 0 0 0 7.252-18.583c0-15.821-9.216-23.737-27.647-23.749h-25.073v48.695Z"
        fill="#fff"/>
    <defs>
        <linearGradient id="a" x1="45.215" y1="103.31" x2="214.508" y2="396.5" gradientUnits="userSpaceOnUse">
            <stop stop-color="#CA4C28"/>
            <stop offset=".5" stop-color="#C5401E"/>
            <stop offset="1" stop-color="#B62F14"/>
        </linearGradient>
    </defs>
</svg>
