<svg width="512" height="512" data-colorable="true" viewBox="0 0 512 512" xmlns="http://www.w3.org/2000/svg">
    <path d="M74.249 32C63.066 32 54 41.066 54 52.249v364.474c0 11.183 9.066 20.249 20.249 20.249h144.778L257.751 480l38.725-43.028h142.247c11.183 0 20.249-9.066 20.249-20.249V52.249c0-11.183-9.066-20.249-20.249-20.249H74.249Zm177.703 92.652c1.862-3.747 7.206-3.747 9.067 0l29.392 59.155a5.063 5.063 0 0 0 3.792 2.755l65.342 9.673c4.138.613 5.79 5.695 2.802 8.623l-47.177 46.233a5.062 5.062 0 0 0-1.449 4.458l10.993 65.133c.696 4.125-3.628 7.267-7.336 5.33l-58.549-30.582a5.061 5.061 0 0 0-4.687 0l-58.549 30.582c-3.708 1.937-8.031-1.205-7.335-5.33l10.992-65.133a5.062 5.062 0 0 0-1.448-4.458l-47.178-46.233c-2.987-2.928-1.336-8.01 2.802-8.623l65.343-9.673a5.063 5.063 0 0 0 3.792-2.755l29.391-59.155Z"/>
</svg>
