<svg width="512" height="512" data-colorable="true" viewBox="0 0 512 512" xmlns="http://www.w3.org/2000/svg">
  <path d="M76.77 52c12.872 0 22.954 2.848 30.244 8.544 7.405 5.696 11.107 13.784 11.107 24.264v2.05h-16.745v-2.563c0-5.468-2.222-9.683-6.665-12.644-4.442-2.962-10.31-4.443-17.6-4.443-8.088 0-14.41 1.367-18.967 4.101-4.443 2.62-6.664 6.436-6.664 11.449 0 3.759 1.253 6.835 3.76 9.227 2.62 2.392 5.809 4.272 9.568 5.639 3.873 1.367 9.17 2.905 15.891 4.613 8.658 2.279 15.664 4.5 21.018 6.665 5.354 2.164 9.911 5.411 13.67 9.739 3.873 4.329 5.81 10.082 5.81 17.259 0 12.759-3.93 22.1-11.79 28.024-7.747 5.809-18.683 8.714-32.808 8.714-14.126 0-25.12-2.962-32.98-8.885C35.873 157.715 32 149 32 137.609l.17-3.418h16.747l-.171 3.589c0 6.607 2.449 11.562 7.347 14.866 5.013 3.189 11.905 4.784 20.676 4.784 8.544 0 15.265-1.538 20.164-4.613 5.012-3.19 7.518-7.519 7.518-12.987 0-4.329-1.367-7.803-4.101-10.423-2.62-2.734-5.98-4.842-10.081-6.323-3.988-1.481-9.456-3.132-16.404-4.955-8.544-2.278-15.38-4.443-20.505-6.493-5.127-2.051-9.513-5.184-13.158-9.399-3.645-4.328-5.468-9.967-5.468-16.916 0-11.278 3.816-19.65 11.449-25.119C53.815 54.734 64.01 52 76.769 52Zm112.257 0c9.113 0 17.087 1.88 23.922 5.639 6.835 3.76 12.075 9.17 15.721 16.233 3.759 6.949 5.639 15.208 5.639 24.777h-16.746c0-9.91-2.449-17.6-7.348-23.068-4.898-5.582-11.961-8.373-21.188-8.373-10.253 0-18.056 3.19-23.41 9.569-5.354 6.265-8.031 15.55-8.031 27.853v15.378c0 12.19 2.62 21.474 7.86 27.853 5.24 6.38 12.986 9.569 23.239 9.569 9.569 0 16.86-2.734 21.872-8.202 5.126-5.468 7.689-13.1 7.689-22.897h16.063c0 9.455-1.88 17.657-5.639 24.606-3.646 6.949-8.886 12.303-15.721 16.062-6.835 3.76-14.809 5.639-23.922 5.639-15.151 0-26.999-4.613-35.542-13.841-8.43-9.341-12.645-22.271-12.645-38.789V104.63c0-16.404 4.215-29.277 12.645-38.618C162.028 56.67 173.876 52 189.027 52Zm119.456 1.709 45.795 117.22h-18.113l-9.911-25.46h-56.047l-9.74 25.46h-16.233l45.795-117.22h18.454Zm-9.569 20.163h-1.025l-21.701 56.389h44.257l-21.531-56.389Zm158.973-20.163v117.22h-14.182l-57.244-85.78-.512.172v85.608h-15.208V53.709h14.695l56.731 84.754.513-.171V53.709h15.207ZM274.249 239.08v220.032h-31.433V275.966h-1.925l-76.017 183.146h-26.622L62.556 275.966h-1.603v183.146H32.406V239.08h49.395l70.885 173.203h1.283l71.206-173.203h49.074Zm203.506 0-4.17 28.547H364.852v64.79h98.469v28.547h-98.469v69.602H475.51l4.49 28.546H333.419V239.08h144.336Z"/>
</svg>
