<svg width="512" height="512" data-colorable="true" viewBox="0 0 512 512" xmlns="http://www.w3.org/2000/svg">
    <path d="M34.118 214.281c-3.886-4.718-1.943-7.772 1.943-9.159 2.22-.556 5.274-.833 8.605-.833 8.05 0 15.821 2.22 21.65 6.939 10.825 8.882 29.144 22.76 45.243 22.76 6.107 0 11.658-1.387 14.711-4.441 4.164-4.163 2.776-9.159-.277-11.657-19.985-15.544-58.567-30.533-58.567-58.844 0-37.749 43.3-70.78 68.281-81.327C144.867 73.833 150.696 73 157.08 73c6.662 0 12.213 1.943 16.932 5.829 7.771 7.217 12.768 16.376 14.711 23.871 2.775 11.38-4.164 22.482-8.327 28.589-6.662 8.882-14.711 23.316-18.597 29.977-2.498 4.441-5.552 6.662-10.825 1.11-3.886-3.886-6.662-8.604-6.662-14.988 0-6.107 3.608-16.654 12.768-28.867 6.939-10.27 14.434-22.483 10.548-25.259-10.27-7.494-71.057 33.308-72.445 65.228-.833 18.32 37.194 34.141 48.019 41.913 5.274 3.886 8.327 8.882 8.327 14.156 0 6.384-3.609 13.601-10.825 22.205-7.217 8.327-20.818 14.156-37.472 14.156-20.262 0-47.186-11.38-69.114-36.639Zm187.858-79.106c10.27 0 21.928 9.437 26.369 17.764 4.164 9.16-.277 19.43-5.551 30.255-2.221 4.163-3.886 8.327-4.996 11.38-1.943 5.274-4.441 5.829-9.993 3.053-4.996-3.053-9.715-8.327-9.715-15.821 0-3.608 1.388-9.16 6.384-20.54 2.776-5.551 4.719-10.547 3.609-11.658-3.331-2.775-21.373 15.266-32.475 37.749-5.552 11.381-8.327 22.761-8.327 31.088 0 12.213 4.996 19.707 12.49 19.985 20.818.277 39.97-21.095 51.072-37.749 2.498-4.164 6.662-5.274 8.327-.556 1.388 3.609 1.388 10.825-3.608 18.597-10.548 16.654-33.03 30.255-54.681 30.533-25.536.277-39.692-16.099-39.692-38.305 0-9.992 2.776-21.095 8.605-32.197 14.156-28.59 36.084-43.578 52.182-43.578Zm40.122 44.133c22.205-31.92 44.965-44.966 59.121-44.966 9.993 0 16.099 4.996 18.597 12.213l5.274-8.604c3.331-5.552 8.05-5.829 11.38-1.943 4.719 5.551 7.217 17.764 0 32.197-7.216 15.266-30.532 45.521-30.532 64.118 0 4.164 1.11 6.662 3.886 6.662 9.992 0 23.871-18.875 33.03-36.917 3.054-5.551 5.552-5.829 8.327 0 1.111 2.498 2.776 9.993-1.11 18.042-7.217 15.266-24.981 29.977-41.912 29.977-13.879 0-21.928-7.216-24.149-17.486-8.049 7.772-20.54 16.376-31.642 16.376-16.377 0-25.259-11.935-25.259-28.312 0-11.935 4.996-27.479 14.989-41.357Zm13.878 57.456c9.16 0 21.928-16.931 35.529-40.247 10.825-18.874 15.821-32.475 15.821-39.692 0-3.331-.555-5.274-3.331-5.274-5.551 0-24.703 17.487-38.859 40.247-8.327 13.046-13.046 27.757-13.046 36.639 0 4.996 1.11 8.327 3.886 8.327Zm131.907-99.646c2.498 4.163 3.608 8.604 3.608 13.045 0 1.943 0 3.886-.277 5.552 11.935-11.103 25.258-20.263 35.251-20.263 8.049 0 15.543 9.715 15.543 20.263 0 6.106-4.996 14.988-13.878 30.532-8.882 14.156-18.319 32.475-18.319 42.745 0 5.829 1.943 9.438 5.551 9.438 9.437 0 23.871-18.042 33.863-36.639 2.776-5.274 6.662-4.996 9.16-1.11 2.22 3.33 2.498 11.935-1.388 19.429-7.772 15.266-28.034 29.977-44.688 29.977-18.597 0-26.647-9.437-26.647-23.87 0-14.989 12.768-40.525 23.594-57.734 5.828-9.16 10.27-16.377 8.327-16.377-2.499 0-16.099 7.772-31.365 24.981-15.267 16.099-27.757 43.301-39.137 68.282-1.943 4.441-5.552 6.106-9.993 1.665-3.886-3.886-6.106-8.604-6.106-15.266 0-4.164.833-8.882 2.498-14.433 5.274-15.544 26.646-54.403 43.855-80.217 3.609-5.274 7.772-4.996 10.548 0ZM180.707 322.185c2.498 4.164 3.886 8.882 3.886 13.323 0 2.221-.278 4.719-.833 7.495 11.935-11.658 27.479-22.206 36.361-22.206 8.882 0 14.711 9.993 14.711 21.651 12.491-11.103 27.202-20.54 36.084-20.263 8.049.278 12.49 7.772 12.49 16.932 0 9.437-5.829 22.205-17.209 39.692-7.772 11.935-14.989 24.148-14.989 33.863 0 6.384 2.776 10.825 7.217 10.825 8.605 0 22.206-19.43 32.475-36.361 2.499-4.164 5.274-4.441 7.772-1.943 3.054 3.053 3.331 13.601 0 19.985-7.772 16.098-27.479 29.977-44.688 29.977-18.874 0-29.144-10.27-29.144-25.259 0-4.996 1.11-11.102 4.163-18.042 4.441-9.437 13.601-24.425 19.985-34.418 6.106-9.16 12.768-17.487 10.547-17.487-2.22 0-8.049 2.776-24.425 19.153-21.651 21.65-34.974 48.019-46.632 73.832-2.775 5.274-6.661 6.107-11.102 1.666-4.164-4.164-6.107-8.05-6.107-15.267 0-4.718 2.221-13.6 4.997-20.539 3.885-9.993 13.045-24.981 20.539-36.639 7.495-12.491 15.267-23.038 12.769-23.038-2.221 0-13.046 6.106-29.7 24.426-15.544 16.654-28.312 41.912-39.137 67.448-1.943 4.441-4.996 6.107-9.715 1.943-3.886-3.331-6.661-8.327-6.661-14.711 0-3.886.832-8.604 3.053-14.988 5.829-16.654 25.814-55.236 42.745-81.05 3.608-5.274 7.772-4.996 10.548 0Zm179.704 13.879c-4.163-3.331-24.703 13.6-38.026 40.247 2.22 1.387 4.163 1.943 6.106 1.943 6.662 0 15.544-8.327 21.095-15.822 8.05-10.825 13.879-23.87 10.825-26.368Zm20.818 11.102c0 16.654-18.597 45.799-43.023 45.799-6.662 0-13.323-1.943-19.707-6.107-1.666 5.551-2.498 11.38-2.498 16.377 0 12.213 4.996 20.817 13.323 20.817 21.095 0 39.692-20.54 51.072-37.749 3.053-4.441 6.662-4.996 8.882.555.833 2.498 1.11 10.548-3.886 18.042-11.658 16.932-33.863 29.977-55.513 30.255-25.814.277-39.97-16.654-39.97-38.86 0-9.992 2.776-20.817 8.605-31.92 14.433-29.422 36.916-44.133 53.015-44.133 3.886 0 6.939.555 9.715 2.221 7.772 4.441 13.323 8.882 17.209 14.433 1.666 2.498 2.776 6.662 2.776 10.27Z"/>
</svg>
