<svg width="512" height="512" data-colorable="true" viewBox="0 0 512 512" xmlns="http://www.w3.org/2000/svg">
    <path fill-rule="evenodd" clip-rule="evenodd" d="M480 256c0 123.712-100.288 224-224 224S32 379.712 32 256 132.288 32 256 32s224 100.288 224 224Zm-16 0c0 114.875-93.125 208-208 208S48 370.875 48 256 141.125 48 256 48s208 93.125 208 208Zm-196.668-53.227h-13.5l24.58-69.818h15.614l24.613 69.818h-13.5l-5.784-17.216h-26.249l-5.774 17.216Zm19.159-55.5 9.45 28.125h-19.428l9.433-28.125h.545Zm-127.048-2.08c2.364 1.659 3.705 3.977 4.023 6.955h12.17c-.068-3.932-1.17-7.409-3.306-10.432-2.137-3.046-5.08-5.421-8.83-7.125-3.727-1.727-8.068-2.591-13.023-2.591-4.886 0-9.261.864-13.125 2.591-3.863 1.704-6.92 4.102-9.17 7.193-2.227 3.091-3.341 6.693-3.341 10.807 0 5 1.659 9.011 4.977 12.034 3.341 3 7.887 5.239 13.637 6.716l7.943 2.045c2.5.637 4.682 1.364 6.545 2.182 1.887.796 3.352 1.796 4.398 3 1.045 1.182 1.579 2.682 1.602 4.5-.023 2-.625 3.75-1.807 5.25-1.181 1.477-2.818 2.637-4.909 3.477-2.068.819-4.477 1.228-7.227 1.228-2.636 0-5.023-.398-7.159-1.193-2.114-.796-3.83-2-5.148-3.614-1.318-1.614-2.068-3.636-2.25-6.068H123c.182 4.636 1.386 8.568 3.614 11.795 2.25 3.227 5.363 5.682 9.341 7.364 4 1.682 8.715 2.523 14.147 2.523 5.591 0 10.353-.864 14.284-2.591 3.955-1.75 6.978-4.171 9.069-7.262 2.09-3.113 3.136-6.716 3.136-10.807 0-3.022-.568-5.659-1.705-7.909a17.536 17.536 0 0 0-4.636-5.761c-1.932-1.591-4.125-2.909-6.58-3.955a45.02 45.02 0 0 0-7.602-2.488l-6.545-1.637a41.198 41.198 0 0 1-4.262-1.261 19.484 19.484 0 0 1-3.852-1.841c-1.159-.75-2.079-1.659-2.761-2.727-.659-1.068-.989-2.33-.989-3.784.023-1.75.534-3.307 1.534-4.671 1-1.363 2.443-2.443 4.33-3.238 1.886-.796 4.147-1.193 6.784-1.193 3.75 0 6.795.829 9.136 2.488Zm75.435 11.318h12.75c-.523-3.886-1.637-7.341-3.341-10.363-1.682-3.046-3.83-5.614-6.443-7.705-2.614-2.113-5.591-3.716-8.932-4.807-3.341-1.091-6.955-1.636-10.841-1.636-6.091 0-11.545 1.42-16.364 4.261-4.818 2.841-8.625 6.944-11.42 12.307-2.796 5.341-4.193 11.773-4.193 19.296 0 7.5 1.386 13.931 4.159 19.295 2.773 5.364 6.568 9.466 11.386 12.307 4.818 2.841 10.296 4.261 16.432 4.261 4.159 0 7.943-.613 11.352-1.841 3.409-1.25 6.387-2.977 8.932-5.181 2.546-2.228 4.602-4.796 6.171-7.705a27.469 27.469 0 0 0 3.102-9.341l-12.75-.068c-.387 2.045-1.091 3.864-2.114 5.454a14.61 14.61 0 0 1-3.716 4.023c-1.454 1.091-3.102 1.921-4.943 2.489-1.818.545-3.773.818-5.864.818-3.772 0-7.125-.92-10.056-2.761-2.909-1.864-5.205-4.614-6.887-8.25-1.659-3.659-2.488-8.159-2.488-13.5 0-5.25.829-9.694 2.488-13.33 1.659-3.659 3.955-6.432 6.887-8.318 2.931-1.909 6.295-2.864 10.091-2.864 2.136 0 4.125.296 5.965.887 1.864.568 3.523 1.42 4.978 2.556a14.95 14.95 0 0 1 3.647 4.16c.978 1.613 1.648 3.465 2.012 5.556Zm139.082 46.262h11.25v-69.818h-12.579v47.59h-.614l-32.864-47.59h-11.318v69.818h12.648v-47.557h.579l32.898 47.557Zm-249.744 39.316h30.522l40.875 99.767h1.613l40.875-99.767h30.522v137.684h-23.934v-94.59h-1.277l-38.051 94.186h-17.883l-38.051-94.388h-1.277v94.792h-23.934V242.089Zm174.407 0v137.684h90.085v-20.908h-65.144v-37.581h59.968v-20.908h-59.968v-37.379h64.607v-20.908h-89.548Z"/>
</svg>
