<svg width="512" height="512" viewBox="0 0 512 512" fill="none" xmlns="http://www.w3.org/2000/svg">
<path d="M256 512C397.385 512 512 397.385 512 256C512 114.615 397.385 0 256 0C114.615 0 0 114.615 0 256C0 397.385 114.615 512 256 512Z" fill="black"/>
<path d="M336.656 243.694C335.198 242.991 333.741 242.341 332.232 241.69C329.629 193.754 303.449 166.324 259.468 166.038C259.26 166.038 259.078 166.038 258.869 166.038C232.559 166.038 210.699 177.254 197.218 197.683L221.395 214.261C231.44 199.01 247.237 195.757 258.869 195.757C259 195.757 259.13 195.757 259.26 195.757C273.729 195.861 284.659 200.051 291.738 208.275C296.891 214.261 300.326 222.51 302.018 232.946C289.188 230.76 275.291 230.083 260.457 230.942C218.636 233.362 191.779 257.747 193.575 291.604C194.486 308.78 203.048 323.588 217.673 333.243C230.035 341.415 245.961 345.397 262.539 344.486C284.399 343.289 301.549 334.935 313.52 319.685C322.603 308.104 328.354 293.088 330.904 274.168C341.314 280.466 349.043 288.742 353.311 298.683C360.572 315.599 360.988 343.393 338.321 366.034C318.465 385.89 294.575 394.478 258.479 394.738C218.454 394.452 188.162 381.596 168.487 356.587C150.062 333.165 140.537 299.308 140.173 255.977C140.537 212.647 150.062 178.816 168.487 155.368C188.162 130.333 218.454 117.503 258.479 117.216C298.817 117.529 329.603 130.411 350.058 155.55C360.078 167.885 367.625 183.396 372.621 201.483L400.962 193.91C394.924 171.659 385.425 152.479 372.491 136.578C346.285 104.334 307.977 87.809 258.583 87.4707H258.375C209.085 87.809 171.194 104.386 145.742 136.761C123.101 165.569 111.416 205.621 111 255.847V255.977V256.107C111.39 306.334 123.075 346.411 145.742 375.194C171.194 407.542 209.085 424.146 258.375 424.484H258.583C302.382 424.172 333.273 412.721 358.724 387.295C392.009 354.037 390.994 312.372 380.038 286.764C372.179 268.443 357.163 253.531 336.656 243.694ZM261.003 314.818C242.682 315.859 223.633 307.635 222.696 290.017C221.993 276.953 231.986 262.379 262.122 260.636C265.584 260.428 268.967 260.349 272.272 260.349C283.228 260.349 293.456 261.416 302.772 263.446C299.311 306.777 278.96 313.829 261.003 314.818Z" fill="white"/>
</svg>
