<svg width="18" height="18" viewBox="0 0 25 25" fill="none" xmlns="http://www.w3.org/2000/svg"><path fill-rule="evenodd" clip-rule="evenodd" d="M14.672 10.322c-1.643-1.642-4.42-1.58-6.2.2l-4.4 4.4c-1.781 1.78-1.844 4.558-.2 6.2 1.642 1.644 4.42 1.581 6.2-.2l2.2-2.199a.849.849 0 0 0-1.2-1.2l-2.201 2.2c-1.092 1.092-2.791 1.207-3.8.2-1.007-1.009-.892-2.708.2-3.8l4.4-4.4c1.093-1.093 2.792-1.208 3.8-.2a.849.849 0 1 0 1.2-1.2Z" fill="#616568"/><path fill-rule="evenodd" clip-rule="evenodd" d="M10.272 14.723a4.243 4.243 0 0 0 6 0l4.8-4.8a4.247 4.247 0 0 0 0-6.001 4.243 4.243 0 0 0-6 0l-2.4 2.4a.849.849 0 0 0 1.2 1.201l2.4-2.4a2.545 2.545 0 1 1 3.6 3.6l-4.8 4.8a2.548 2.548 0 0 1-3.6 0 .847.847 0 1 0-1.2 1.2Z" fill="#616568"/></svg>
