<svg width="512" height="512" data-colorable="true" viewBox="0 0 512 512" xmlns="http://www.w3.org/2000/svg">
    <path d="M426.667 426.665H85.334c-35.285 0-64-28.714-64-64V149.332c0-35.285 28.715-64 64-64h341.333c35.286 0 64 28.715 64 64v213.333c0 35.286-28.714 64-64 64ZM85.334 127.999c-11.755 0-21.333 9.578-21.333 21.333v213.333c0 11.755 9.578 21.334 21.333 21.334h341.333c11.755 0 21.334-9.579 21.334-21.334V149.332c0-11.755-9.579-21.333-21.334-21.333H85.334Zm128 192h-85.333c-11.798 0-21.334-9.558-21.334-21.334s9.536-21.333 21.334-21.333h85.333c11.797 0 21.333 9.557 21.333 21.333 0 11.776-9.536 21.334-21.333 21.334Zm0-85.334h-85.333c-11.798 0-21.334-9.557-21.334-21.333 0-11.776 9.536-21.333 21.334-21.333h85.333c11.797 0 21.333 9.557 21.333 21.333 0 11.776-9.536 21.333-21.333 21.333Zm128.001 32c23.564 0 42.666-19.102 42.666-42.666 0-23.564-19.102-42.667-42.666-42.667-23.565 0-42.667 19.103-42.667 42.667s19.102 42.666 42.667 42.666Zm-.002 18.261c-33.322 0-53.333 15.253-53.333 30.485 0 7.616 20.011 15.253 53.333 15.253 31.275 0 53.334-7.616 53.334-15.253 0-15.232-20.907-30.485-53.334-30.485Z"/>
</svg>
